<svg width="78" height="70" viewBox="0 0 78 70" fill="none" xmlns="http://www.w3.org/2000/svg">
<path d="M42.0001 45.75H36.0001C34.6801 45.75 33.5801 45.62 32.6501 45.34C32.3101 45.24 32.0901 44.91 32.1101 44.56C32.3601 41.57 35.3901 39.22 39.0001 39.22C42.6101 39.22 45.6301 41.56 45.8901 44.56C45.9201 44.92 45.7001 45.24 45.3501 45.34C44.4201 45.62 43.3201 45.75 42.0001 45.75ZM33.7201 44.06C34.3801 44.19 35.1301 44.25 36.0001 44.25H42.0001C42.8701 44.25 43.6201 44.19 44.2801 44.06C43.7501 42.14 41.5601 40.72 39.0001 40.72C36.4401 40.72 34.2501 42.14 33.7201 44.06Z" fill="black"/>
<path d="M42 25H36C31 25 29 27 29 32V38C29 41.78 30.14 43.85 32.86 44.62C33.08 42.02 35.75 39.97 39 39.97C42.25 39.97 44.92 42.02 45.14 44.62C47.86 43.85 49 41.78 49 38V32C49 27 47 25 42 25ZM39 37.17C37.02 37.17 35.42 35.56 35.42 33.58C35.42 31.6 37.02 30 39 30C40.98 30 42.58 31.6 42.58 33.58C42.58 35.56 40.98 37.17 39 37.17Z" stroke="black" stroke-width="1.5" stroke-linecap="round" stroke-linejoin="round"/>
<path d="M38.9999 37.92C36.6099 37.92 34.6699 35.97 34.6699 33.58C34.6699 31.19 36.6099 29.25 38.9999 29.25C41.3899 29.25 43.3299 31.19 43.3299 33.58C43.3299 35.97 41.3899 37.92 38.9999 37.92ZM38.9999 30.75C37.4399 30.75 36.1699 32.02 36.1699 33.58C36.1699 35.15 37.4399 36.42 38.9999 36.42C40.5599 36.42 41.8299 35.15 41.8299 33.58C41.8299 32.02 40.5599 30.75 38.9999 30.75Z" fill="black"/>
</svg>